<svg width="716" height="64" viewBox="0 0 716 64" fill="none" xmlns="http://www.w3.org/2000/svg">
<path d="M0 -10H73V27.5C73 47.6584 56.6584 64 36.5 64C16.3416 64 0 47.6584 0 27.5V-10Z" fill="#FB545B"/>
<path d="M73 -10H143V29C143 48.33 127.33 64 108 64C88.67 64 73 48.33 73 29V-10Z" fill="#3E45EC"/>
<path d="M143 -10H214V28.5C214 48.1061 198.106 64 178.5 64C158.894 64 143 48.1061 143 28.5V-10Z" fill="#FB545B"/>
<path d="M214 -10H287V27.5C287 47.6584 270.658 64 250.5 64C230.342 64 214 47.6584 214 27.5V-10Z" fill="#3E45EC"/>
<path d="M287 -10H357V29C357 48.33 341.33 64 322 64C302.67 64 287 48.33 287 29V-10Z" fill="#FB545B"/>
<path d="M430 -10H500V29C500 48.33 484.33 64 465 64C445.67 64 430 48.33 430 29V-10Z" fill="#FB545B"/>
<path d="M573 -10H643V29C643 48.33 627.33 64 608 64C588.67 64 573 48.33 573 29V-10Z" fill="#FB545B"/>
<path d="M357 -10H430V27.5C430 47.6584 413.658 64 393.5 64C373.342 64 357 47.6584 357 27.5V-10Z" fill="#3E45EC"/>
<path d="M500 -10H573V27.5C573 47.6584 556.658 64 536.5 64C516.342 64 500 47.6584 500 27.5V-10Z" fill="#3E45EC"/>
<path d="M643 -10H716V27.5C716 47.6584 699.658 64 679.5 64C659.342 64 643 47.6584 643 27.5V-10Z" fill="#3E45EC"/>
</svg>
