<svg width="23" height="23" viewBox="0 0 23 23" fill="none" xmlns="http://www.w3.org/2000/svg">
<path fill-rule="evenodd" clip-rule="evenodd" d="M6.83469 6.14293C6.5219 5.83014 6.5219 5.32302 6.83469 5.01023L10.6103 1.23459C10.9231 0.921804 11.4302 0.921804 11.743 1.23459L15.5187 5.01023C15.8315 5.32302 15.8315 5.83014 15.5187 6.14293C15.2059 6.45571 14.6988 6.45571 14.386 6.14293L11.9243 3.6813V16.2385C11.9243 16.6527 11.5886 16.9885 11.1743 16.9885C10.7601 16.9885 10.4243 16.6527 10.4243 16.2385V3.68596L7.96738 6.14293C7.6546 6.45571 7.14747 6.45571 6.83469 6.14293ZM16.2704 9.75888C16.2924 9.76011 16.3132 9.76151 16.3335 9.7631C18.4176 9.92713 20.0729 11.5825 20.2369 13.6666C20.2446 13.764 20.2478 13.5002 20.2491 13.3909C20.2499 13.3217 20.25 13.3145 20.25 13.5V15C20.25 16.9197 20.2408 17.7016 20.042 18.3133C19.6216 19.6072 18.6072 20.6216 17.3134 21.042C16.7016 21.2407 15.9197 21.25 14 21.25H9.00003C7.08038 21.25 6.29842 21.2407 5.68671 21.042C4.39285 20.6216 3.37844 19.6072 2.95804 18.3133C2.75929 17.7016 2.75003 16.9197 2.75003 15V14C2.75003 11.9075 4.26231 10.1681 6.25356 9.81534C6.66142 9.74308 7.00003 9.41422 7.00003 9C7.00003 8.58579 6.66247 8.24487 6.25171 8.29825C3.42963 8.66502 1.25003 11.078 1.25003 14V15L1.25002 15.1618C1.24975 16.8681 1.24958 17.9093 1.53146 18.7768C2.10024 20.5274 3.47267 21.8998 5.22319 22.4686C6.0907 22.7504 7.1319 22.7503 8.83817 22.75H8.83819L9.00003 22.75H14L14.1619 22.75H14.1619C15.8682 22.7503 16.9094 22.7504 17.7769 22.4686C19.5274 21.8998 20.8998 20.5274 21.4686 18.7768C21.7505 17.9093 21.7503 16.8681 21.75 15.1618L21.75 15V13.4596C21.75 13.361 21.75 13.3249 21.7498 13.3249C21.7491 13.3249 21.746 13.7222 21.7323 13.5489C21.5104 10.7292 19.2708 8.48964 16.4512 8.26773C16.3938 8.26321 16.3343 8.25985 16.2704 8.25734C15.8644 8.24139 15.5317 8.5736 15.5208 8.9798C15.5094 9.40177 15.8489 9.73526 16.2704 9.75888Z" fill="#14151A"/>
<path d="M6.83469 5.01023L6.65791 4.83346H6.65791L6.83469 5.01023ZM6.83469 6.14293L6.65791 6.31971L6.65791 6.31971L6.83469 6.14293ZM10.6103 1.23459L10.4336 1.05781V1.05781L10.6103 1.23459ZM11.743 1.23459L11.5662 1.41137V1.41137L11.743 1.23459ZM14.386 6.14293L14.5628 5.96615V5.96615L14.386 6.14293ZM11.9243 3.6813L12.1011 3.50452C12.0296 3.43302 11.9221 3.41163 11.8287 3.45033C11.7353 3.48902 11.6743 3.58018 11.6743 3.6813H11.9243ZM10.4243 3.68596H10.6743C10.6743 3.58485 10.6134 3.49369 10.52 3.45499C10.4266 3.4163 10.3191 3.43769 10.2476 3.50919L10.4243 3.68596ZM7.96738 6.14293L7.7906 5.96615L7.96738 6.14293ZM16.3335 9.7631L16.3531 9.51387H16.3531L16.3335 9.7631ZM16.2704 9.75888L16.2844 9.50927H16.2844L16.2704 9.75888ZM20.2369 13.6666L19.9877 13.6862L20.2369 13.6666ZM20.2491 13.3909L19.9991 13.3879V13.3879L20.2491 13.3909ZM20.042 18.3133L19.8043 18.2361V18.2361L20.042 18.3133ZM17.3134 21.042L17.2361 20.8042L17.3134 21.042ZM5.68671 21.042L5.76397 20.8042L5.68671 21.042ZM2.95804 18.3133L3.19581 18.2361L3.19581 18.2361L2.95804 18.3133ZM6.25356 9.81534L6.29717 10.0615H6.29717L6.25356 9.81534ZM6.25171 8.29825L6.28393 8.54617L6.25171 8.29825ZM1.25003 15L1.50003 15V15H1.25003ZM1.25002 15.1618L1.50002 15.1619V15.1619L1.25002 15.1618ZM1.53146 18.7768L1.29369 18.8541L1.29369 18.8541L1.53146 18.7768ZM5.22319 22.4686L5.14593 22.7063H5.14593L5.22319 22.4686ZM8.83817 22.75V22.5H8.83813L8.83817 22.75ZM8.83819 22.75V23H8.83821L8.83819 22.75ZM9.00003 22.75V22.5H9.00001L9.00003 22.75ZM14 22.75L14.0001 22.5H14V22.75ZM14.1619 22.75L14.1619 23H14.1619V22.75ZM14.1619 22.75L14.1619 22.5H14.1619V22.75ZM17.7769 22.4686L17.8541 22.7063H17.8541L17.7769 22.4686ZM21.4686 18.7768L21.7064 18.8541L21.4686 18.7768ZM21.75 15.1618L21.5 15.1619V15.1619L21.75 15.1618ZM21.75 15H21.5V15L21.75 15ZM21.75 13.4596L21.5 13.4595V13.4596H21.75ZM21.7498 13.3249L21.7482 13.5749L21.7487 13.5749L21.7498 13.3249ZM21.7323 13.5489L21.4831 13.5685L21.7323 13.5489ZM16.4512 8.26773L16.4708 8.0185L16.4512 8.26773ZM16.2704 8.25734L16.2802 8.00753H16.2802L16.2704 8.25734ZM15.5208 8.9798L15.7707 8.98653L15.5208 8.9798ZM6.65791 4.83346C6.24749 5.24387 6.24749 5.90929 6.65791 6.31971L7.01146 5.96615C6.79631 5.751 6.79631 5.40217 7.01146 5.18701L6.65791 4.83346ZM10.4336 1.05781L6.65791 4.83346L7.01146 5.18701L10.7871 1.41137L10.4336 1.05781ZM11.9198 1.05781C11.5094 0.647396 10.844 0.647396 10.4336 1.05781L10.7871 1.41137C11.0023 1.19621 11.3511 1.19621 11.5662 1.41137L11.9198 1.05781ZM15.6954 4.83346L11.9198 1.05781L11.5662 1.41137L15.3419 5.18701L15.6954 4.83346ZM15.6954 6.31971C16.1059 5.90929 16.1059 5.24387 15.6954 4.83346L15.3419 5.18701C15.5571 5.40217 15.5571 5.751 15.3419 5.96615L15.6954 6.31971ZM14.2092 6.31971C14.6196 6.73012 15.285 6.73012 15.6954 6.31971L15.3419 5.96615C15.1267 6.18131 14.7779 6.18131 14.5628 5.96615L14.2092 6.31971ZM11.7476 3.85807L14.2092 6.31971L14.5628 5.96615L12.1011 3.50452L11.7476 3.85807ZM12.1743 16.2385V3.6813H11.6743V16.2385H12.1743ZM11.1743 17.2385C11.7266 17.2385 12.1743 16.7908 12.1743 16.2385H11.6743C11.6743 16.5147 11.4505 16.7385 11.1743 16.7385V17.2385ZM10.1743 16.2385C10.1743 16.7908 10.6221 17.2385 11.1743 17.2385V16.7385C10.8982 16.7385 10.6743 16.5147 10.6743 16.2385H10.1743ZM10.1743 3.68596V16.2385H10.6743V3.68596H10.1743ZM8.14416 6.31971L10.6011 3.86274L10.2476 3.50919L7.7906 5.96615L8.14416 6.31971ZM6.65791 6.31971C7.06833 6.73012 7.73374 6.73012 8.14416 6.31971L7.7906 5.96615C7.57545 6.18131 7.22662 6.18131 7.01146 5.96615L6.65791 6.31971ZM16.3531 9.51387C16.3309 9.51212 16.3081 9.5106 16.2844 9.50927L16.2564 10.0085C16.2766 10.0096 16.2956 10.0109 16.3139 10.0123L16.3531 9.51387ZM20.4862 13.6469C20.3125 11.4402 18.5598 9.68754 16.3531 9.51387L16.3139 10.0123C18.2754 10.1667 19.8333 11.7247 19.9877 13.6862L20.4862 13.6469ZM19.9991 13.3879C19.9985 13.4431 19.9974 13.5342 19.9955 13.5991C19.995 13.6152 19.9946 13.6288 19.9941 13.6394C19.9935 13.6516 19.9931 13.6548 19.9934 13.6527C19.9935 13.6517 19.9938 13.6485 19.9946 13.644C19.995 13.6413 19.997 13.6291 20.0017 13.6136C20.0039 13.6065 20.0094 13.5892 20.0204 13.5688C20.026 13.5584 20.0588 13.4956 20.1368 13.4601C20.184 13.4387 20.2408 13.4308 20.2986 13.4447C20.352 13.4576 20.389 13.4849 20.4103 13.5048C20.4485 13.5403 20.465 13.5785 20.4689 13.5875C20.4798 13.6127 20.4837 13.6336 20.4841 13.6358C20.4854 13.6422 20.486 13.6469 20.4862 13.6482C20.4866 13.651 20.4865 13.6512 20.4862 13.6469L19.9877 13.6862C19.9883 13.694 19.9892 13.7036 19.9904 13.7132C19.9911 13.7179 19.9921 13.7253 19.9938 13.7339C19.9947 13.7382 19.999 13.7607 20.0103 13.7868C20.0145 13.7963 20.0311 13.8348 20.0695 13.8705C20.0909 13.8905 20.128 13.9179 20.1815 13.9308C20.2394 13.9447 20.2963 13.9368 20.3436 13.9153C20.4218 13.8798 20.4548 13.8167 20.4606 13.8059C20.4718 13.7852 20.4775 13.7674 20.4799 13.7596C20.488 13.7331 20.4902 13.7088 20.4904 13.7072C20.4931 13.6824 20.4944 13.6441 20.4953 13.6133C20.4973 13.5435 20.4984 13.448 20.4991 13.3939L19.9991 13.3879ZM20.5 13.5C20.5 13.4083 20.5 13.3618 20.4999 13.3475C20.4999 13.3459 20.4998 13.3425 20.4997 13.339C20.4997 13.338 20.4996 13.336 20.4995 13.3336C20.4995 13.3331 20.4991 13.3252 20.4979 13.3154C20.4976 13.3124 20.4968 13.307 20.4956 13.3003C20.4948 13.2961 20.4918 13.2798 20.4845 13.26C20.4801 13.2487 20.4656 13.2198 20.4548 13.2029C20.4317 13.1745 20.3493 13.1166 20.2873 13.0988C20.2125 13.0988 20.0997 13.1461 20.0639 13.1788C20.0474 13.1993 20.0259 13.2347 20.0196 13.2484C20.0098 13.2716 20.0059 13.291 20.005 13.2951C20.0035 13.3025 20.0026 13.3085 20.0022 13.3116C20.0013 13.318 20.0008 13.323 20.0007 13.3249C20.0003 13.3294 20.0001 13.3329 20.0001 13.3341C20 13.3357 19.9999 13.337 19.9999 13.3379C19.9998 13.3396 19.9998 13.3411 19.9998 13.3421C19.9997 13.3441 19.9997 13.3464 19.9996 13.3485C19.9995 13.3567 19.9993 13.3709 19.9991 13.3879L20.4991 13.3939C20.4993 13.3763 20.4995 13.3636 20.4996 13.3569C20.4997 13.3466 20.4998 13.3568 20.4989 13.3673C20.4987 13.3692 20.4983 13.3741 20.4974 13.3805C20.497 13.3836 20.4961 13.3895 20.4945 13.3969C20.4937 13.401 20.4898 13.4204 20.48 13.4435C20.4736 13.4573 20.4522 13.4927 20.4357 13.5131C20.3999 13.5459 20.2871 13.5932 20.2123 13.5932C20.1503 13.5753 20.0679 13.5175 20.0448 13.4891C20.034 13.4721 20.0195 13.4433 20.015 13.432C20.0078 13.4122 20.0048 13.3959 20.004 13.3917C20.0028 13.385 20.002 13.3796 20.0017 13.3767C20.0005 13.367 20.0002 13.3592 20.0001 13.3589C20 13.3567 20 13.355 19.9999 13.3543C19.9999 13.352 19.9999 13.3508 19.9999 13.3524C20 13.3635 20 13.4061 20 13.5H20.5ZM20.5 15V13.5H20V15H20.5ZM20.2798 18.3906C20.4939 17.7315 20.5 16.8993 20.5 15H20C20 16.94 19.9876 17.6717 19.8043 18.2361L20.2798 18.3906ZM17.3906 21.2798C18.7606 20.8346 19.8347 19.7605 20.2798 18.3906L19.8043 18.2361C19.4086 19.4538 18.4539 20.4086 17.2361 20.8042L17.3906 21.2798ZM14 21.5C15.8993 21.5 16.7316 21.4939 17.3906 21.2798L17.2361 20.8042C16.6717 20.9876 15.94 21 14 21V21.5ZM9.00003 21.5H14V21H9.00003V21.5ZM5.60946 21.2798C6.2685 21.4939 7.10074 21.5 9.00003 21.5V21C7.06002 21 6.32835 20.9876 5.76397 20.8042L5.60946 21.2798ZM2.72028 18.3906C3.16541 19.7605 4.23949 20.8346 5.60946 21.2798L5.76397 20.8042C4.54621 20.4086 3.59148 19.4538 3.19581 18.2361L2.72028 18.3906ZM2.50003 15C2.50003 16.8993 2.50614 17.7315 2.72028 18.3906L3.19581 18.2361C3.01243 17.6717 3.00003 16.94 3.00003 15H2.50003ZM2.50003 14V15H3.00003V14H2.50003ZM6.20994 9.56918C4.10139 9.94277 2.50003 11.7841 2.50003 14H3.00003C3.00003 12.0308 4.42323 10.3935 6.29717 10.0615L6.20994 9.56918ZM6.75003 9C6.75003 9.26735 6.52556 9.51326 6.20994 9.56918L6.29717 10.0615C6.79728 9.9729 7.25003 9.56108 7.25003 9H6.75003ZM6.28393 8.54617C6.52332 8.51506 6.75003 8.71384 6.75003 9H7.25003C7.25003 8.45774 6.80161 7.97468 6.21949 8.05034L6.28393 8.54617ZM1.50003 14C1.50003 11.2052 3.5848 8.89696 6.28393 8.54617L6.21949 8.05034C3.27446 8.43309 1.00003 10.9507 1.00003 14H1.50003ZM1.50003 15V14H1.00003V15H1.50003ZM1.50002 15.1619L1.50003 15L1.00003 15L1.00002 15.1618L1.50002 15.1619ZM1.76922 18.6996C1.50245 17.8786 1.49975 16.8844 1.50002 15.1619L1.00002 15.1618C0.99975 16.8518 0.996716 17.9401 1.29369 18.8541L1.76922 18.6996ZM5.30044 22.2308C3.62603 21.6868 2.31327 20.374 1.76922 18.6996L1.29369 18.8541C1.8872 20.6807 3.3193 22.1128 5.14593 22.7063L5.30044 22.2308ZM8.83813 22.5C7.11559 22.5003 6.12147 22.4976 5.30044 22.2308L5.14593 22.7063C6.05993 23.0033 7.14821 23.0003 8.83821 23L8.83813 22.5ZM8.83819 22.5H8.83817V23H8.83819V22.5ZM9.00001 22.5L8.83816 22.5L8.83821 23L9.00006 23L9.00001 22.5ZM14 22.5H9.00003V23H14V22.5ZM14.1619 22.5L14.0001 22.5L14 23L14.1619 23L14.1619 22.5ZM14.1619 22.5H14.1619V23H14.1619V22.5ZM17.6996 22.2308C16.8786 22.4976 15.8845 22.5003 14.1619 22.5L14.1619 23C15.8519 23.0003 16.9401 23.0033 17.8541 22.7063L17.6996 22.2308ZM21.2308 18.6996C20.6868 20.374 19.374 21.6868 17.6996 22.2308L17.8541 22.7063C19.6808 22.1128 21.1129 20.6807 21.7064 18.8541L21.2308 18.6996ZM21.5 15.1619C21.5003 16.8844 21.4976 17.8786 21.2308 18.6996L21.7064 18.8541C22.0033 17.9401 22.0003 16.8518 22 15.1618L21.5 15.1619ZM21.5 15L21.5 15.1619L22 15.1618L22 15L21.5 15ZM21.5 13.4596V15H22V13.4596H21.5ZM21.7487 13.5749C21.6326 13.5744 21.5683 13.4992 21.551 13.4764C21.5296 13.4484 21.5195 13.4225 21.516 13.4133C21.508 13.3921 21.5048 13.3746 21.504 13.3706C21.5018 13.3586 21.501 13.3491 21.5008 13.3473C21.5003 13.3412 21.5001 13.3364 21.5001 13.3357C21.5 13.334 21.5 13.3327 21.5 13.3322C21.4999 13.3316 21.4999 13.3312 21.4999 13.331C21.4999 13.3307 21.4999 13.3313 21.5 13.3336C21.5 13.3379 21.5 13.3449 21.5 13.3556C21.5 13.3767 21.5 13.4102 21.5 13.4595L22 13.4596C22 13.4104 22 13.3765 22 13.355C22 13.3443 22 13.3361 21.9999 13.3305C21.9999 13.3279 21.9999 13.3249 21.9999 13.3223C21.9998 13.3212 21.9998 13.3184 21.9996 13.315C21.9996 13.314 21.9994 13.309 21.9988 13.3028C21.9987 13.3009 21.9979 13.2913 21.9956 13.2793C21.9949 13.2752 21.9917 13.2577 21.9837 13.2365C21.9802 13.2273 21.97 13.2014 21.9487 13.1734C21.9313 13.1506 21.8671 13.0754 21.7509 13.0749L21.7487 13.5749ZM21.4831 13.5685C21.4841 13.581 21.4852 13.593 21.4864 13.6039C21.4874 13.6121 21.4895 13.6295 21.494 13.6481C21.4952 13.6527 21.5019 13.6825 21.5204 13.7152C21.5278 13.7283 21.5558 13.7767 21.6159 13.8105C21.6506 13.83 21.6968 13.8449 21.7505 13.8424C21.8036 13.8398 21.8466 13.8211 21.877 13.801C21.9301 13.7658 21.9542 13.7206 21.9609 13.708C21.9705 13.6896 21.9758 13.6739 21.9783 13.6659C21.9835 13.6494 21.986 13.6355 21.987 13.6296C21.9909 13.6072 21.9924 13.5822 21.9932 13.5687C21.9943 13.5509 21.9951 13.5305 21.9958 13.5102C21.9971 13.4693 21.998 13.4234 21.9987 13.3887C21.999 13.3717 21.9992 13.3557 21.9994 13.346C21.9995 13.3407 21.9995 13.3371 21.9996 13.3351C21.9996 13.3338 21.9996 13.3342 21.9996 13.3352C21.9996 13.3354 21.9995 13.338 21.9993 13.3416C21.9992 13.3425 21.9988 13.3483 21.9979 13.3556C21.9976 13.3579 21.9963 13.3692 21.9929 13.3832C21.9907 13.3919 21.9825 13.4164 21.9758 13.4318C21.9564 13.4658 21.8482 13.5547 21.7482 13.5749L21.7515 13.0749C21.6514 13.0951 21.5433 13.184 21.5238 13.218C21.5172 13.2334 21.509 13.2579 21.5067 13.2666C21.5033 13.2807 21.502 13.292 21.5017 13.2943C21.5008 13.3017 21.5004 13.3076 21.5003 13.3088C21.5001 13.3127 21.5 13.3159 21.4999 13.3168C21.4998 13.3194 21.4998 13.3219 21.4997 13.3236C21.4996 13.3272 21.4995 13.3321 21.4995 13.3373C21.4993 13.3486 21.499 13.3623 21.4987 13.3799C21.4981 13.4142 21.4973 13.4568 21.496 13.4936C21.4945 13.5403 21.4929 13.5527 21.4944 13.5444C21.4948 13.5417 21.4968 13.5304 21.5014 13.5158C21.5036 13.5087 21.5086 13.4938 21.5179 13.476C21.5242 13.464 21.5481 13.4191 21.6009 13.3842C21.6311 13.3641 21.6739 13.3454 21.7269 13.3429C21.7804 13.3404 21.8265 13.3553 21.861 13.3747C21.9208 13.4083 21.9484 13.4563 21.9555 13.4688C21.9733 13.5003 21.9794 13.5282 21.9799 13.5299C21.9841 13.5473 21.9836 13.5554 21.9815 13.5292L21.4831 13.5685ZM16.4316 8.51696C19.1286 8.72922 21.2708 10.8714 21.4831 13.5685L21.9815 13.5292C21.75 10.587 19.413 8.25006 16.4708 8.0185L16.4316 8.51696ZM16.2606 8.50715C16.3218 8.50955 16.378 8.51274 16.4316 8.51696L16.4708 8.0185C16.4096 8.01369 16.3468 8.01015 16.2802 8.00753L16.2606 8.50715ZM15.7707 8.98653C15.7781 8.70991 16.0032 8.49704 16.2606 8.50715L16.2802 8.00753C15.7256 7.98575 15.2853 8.43728 15.2709 8.97306L15.7707 8.98653ZM16.2844 9.50927C15.9834 9.4924 15.7633 9.25922 15.7707 8.98653L15.2709 8.97306C15.2555 9.54432 15.7144 9.97811 16.2564 10.0085L16.2844 9.50927Z" fill="#14151A"/>
</svg>
