<?xml version="1.0" standalone="no"?>
<!DOCTYPE svg PUBLIC "-//W3C//DTD SVG 20010904//EN"
 "http://www.w3.org/TR/2001/REC-SVG-20010904/DTD/svg10.dtd">
<svg version="1.0" xmlns="http://www.w3.org/2000/svg"
 width="200.000000pt" height="200.000000pt" viewBox="0 0 200.000000 200.000000"
 preserveAspectRatio="xMidYMid meet">

<g transform="translate(0.000000,200.000000) scale(0.100000,-0.100000)"
fill="#000000" stroke="none">
<path d="M492 1573 c-24 -5 -45 -39 -57 -92 -4 -19 -20 -63 -36 -99 -16 -35
-36 -89 -45 -120 -9 -32 -19 -63 -21 -69 -4 -10 28 -13 140 -13 130 0 146 2
151 18 11 38 55 270 61 325 l6 57 -88 -1 c-48 -1 -98 -4 -111 -6z"/>
<path d="M716 1398 c-20 -101 -38 -191 -40 -200 -4 -17 9 -18 155 -18 l159 0
0 200 0 200 -118 0 -119 0 -37 -182z"/>
<path d="M1040 1380 l0 -200 143 0 144 0 -9 63 c-4 34 -20 124 -35 200 l-26
137 -109 0 -108 0 0 -200z"/>
<path d="M1313 1553 c3 -16 20 -106 39 -200 l33 -173 148 0 c81 0 147 3 147 8
0 4 -9 22 -20 40 -11 18 -20 37 -20 43 0 5 -20 52 -44 102 -24 51 -54 113 -66
140 -12 26 -30 52 -40 57 -10 6 -55 10 -100 10 l-82 0 5 -27z"/>
<path d="M310 1124 c0 -26 52 -102 78 -113 12 -6 46 -11 75 -11 80 0 126 36
151 118 l7 22 -155 0 c-138 0 -156 -2 -156 -16z"/>
<path d="M665 1103 c-14 -74 57 -119 173 -110 51 4 71 11 100 34 40 32 59 71
49 97 -6 14 -28 16 -161 16 l-154 0 -7 -37z"/>
<path d="M1040 1108 c1 -36 30 -78 68 -97 13 -7 52 -12 87 -12 70 0 99 11 131
49 15 19 19 33 14 56 l-6 31 -147 3 -147 3 0 -33z"/>
<path d="M1394 1125 c-10 -26 17 -75 55 -101 28 -19 49 -24 94 -24 71 0 89 9
127 62 55 76 52 78 -120 78 -125 0 -152 -3 -156 -15z"/>
<path d="M987 1014 c-27 -36 -100 -74 -154 -81 -38 -4 -61 0 -101 17 -29 12
-52 26 -52 29 0 4 -14 18 -31 30 -28 21 -33 22 -41 8 -18 -32 -98 -71 -149
-71 l-49 -1 0 -275 c0 -257 1 -277 20 -308 11 -18 32 -37 46 -42 15 -6 230
-10 540 -10 l514 0 38 34 37 34 3 285 3 285 -53 -1 c-43 -1 -64 5 -110 31 -31
18 -58 38 -61 45 -3 8 -19 0 -46 -21 -104 -83 -193 -82 -295 2 l-41 33 -18
-23z m-37 -399 l0 -255 -165 0 -165 0 0 255 0 255 165 0 165 0 0 -255z m448
121 c2 -86 -1 -133 -9 -142 -14 -17 -219 -20 -250 -4 -17 10 -19 22 -19 140 0
93 3 130 13 134 6 2 68 4 137 3 l125 -2 3 -129z"/>
</g>
</svg>
